<svg width="37" height="37" viewBox="0 0 37 37" fill="none" xmlns="http://www.w3.org/2000/svg">
<path d="M18.5 0C8.28492 0 0 8.28338 0 18.5C0 26.6739 5.30025 33.6083 12.6525 36.055C13.5759 36.2261 13.875 35.6526 13.875 35.1654V31.7213C8.72892 32.8406 7.65746 29.5383 7.65746 29.5383C6.81571 27.4 5.60242 26.8312 5.60242 26.8312C3.92354 25.6826 5.73037 25.7073 5.73037 25.7073C7.58808 25.8368 8.5655 27.6143 8.5655 27.6143C10.2151 30.4418 12.893 29.6247 13.949 29.1514C14.114 27.9566 14.5934 27.1395 15.1238 26.6785C11.0152 26.2083 6.69546 24.622 6.69546 17.5349C6.69546 15.5138 7.4185 13.8642 8.60096 12.5692C8.40979 12.1021 7.77617 10.2197 8.78133 7.67288C8.78133 7.67288 10.3353 7.17646 13.8704 9.56912C15.3457 9.15904 16.9275 8.954 18.5 8.94629C20.0725 8.954 21.6558 9.15904 23.1342 9.56912C26.6662 7.17646 28.2171 7.67288 28.2171 7.67288C29.2238 10.2213 28.5902 12.1036 28.399 12.5692C29.5861 13.8642 30.303 15.5153 30.303 17.5349C30.303 24.6405 25.9755 26.2052 21.8562 26.6631C22.5191 27.2366 23.125 28.362 23.125 30.0887V35.1654C23.125 35.6572 23.421 36.2353 24.3599 36.0534C31.7059 33.6037 37 26.6708 37 18.5C37 8.28338 28.7166 0 18.5 0Z" fill="white"/>
</svg>
