<svg width="33" height="36" viewBox="0 0 33 36" fill="none" xmlns="http://www.w3.org/2000/svg">
<path d="M31.2632 14.7204H26.2437C22.1274 14.7204 18.7753 11.2515 18.7753 6.99176V1.79737C18.7753 0.808816 17.9937 0 17.0384 0H9.67421C4.32474 0 0 3.59474 0 10.0113V25.936C0 32.3526 4.32474 35.9474 9.67421 35.9474H23.3258C28.6753 35.9474 33 32.3526 33 25.936V16.5178C33 15.5293 32.2184 14.7204 31.2632 14.7204ZM16.9863 24.7677L13.5126 28.3625C13.3911 28.4883 13.2347 28.5961 13.0784 28.6501C12.9221 28.7219 12.7658 28.7579 12.5921 28.7579C12.4184 28.7579 12.2621 28.7219 12.1058 28.6501C11.9668 28.5961 11.8279 28.4883 11.7237 28.3804C11.7063 28.3625 11.6889 28.3625 11.6889 28.3445L8.21526 24.7498C7.71158 24.2285 7.71158 23.3658 8.21526 22.8446C8.71895 22.3233 9.55263 22.3233 10.0563 22.8446L11.2895 24.1566V16.6257C11.2895 15.8887 11.88 15.2776 12.5921 15.2776C13.3042 15.2776 13.8947 15.8887 13.8947 16.6257V24.1566L15.1453 22.8625C15.6489 22.3413 16.4826 22.3413 16.9863 22.8625C17.49 23.3838 17.49 24.2465 16.9863 24.7677Z" fill="white"></path>
<path d="M25.9306 12.2409C27.5806 12.2589 29.8732 12.2589 31.8359 12.2589C32.8259 12.2589 33.3469 11.0547 32.6522 10.3357C30.1511 7.72954 25.6701 3.03841 23.0996 0.378305C22.3875 -0.358616 21.1543 0.144647 21.1543 1.16915V7.44196C21.1543 10.0661 23.308 12.2409 25.9306 12.2409Z" fill="white"></path>
</svg>
