<svg width="37" height="37" viewBox="0 0 37 37" fill="none" xmlns="http://www.w3.org/2000/svg">
<path d="M29.2917 0H7.70833C3.45179 0 0 3.45179 0 7.70833V29.2917C0 33.5482 3.45179 37 7.70833 37H29.2917C33.5497 37 37 33.5482 37 29.2917V7.70833C37 3.45179 33.5497 0 29.2917 0ZM12.3333 29.2917H7.70833V12.3333H12.3333V29.2917ZM10.0208 10.3785C8.53158 10.3785 7.32292 9.16058 7.32292 7.659C7.32292 6.15742 8.53158 4.9395 10.0208 4.9395C11.5101 4.9395 12.7187 6.15742 12.7187 7.659C12.7187 9.16058 11.5116 10.3785 10.0208 10.3785ZM30.8333 29.2917H26.2083V20.6522C26.2083 15.4598 20.0417 15.853 20.0417 20.6522V29.2917H15.4167V12.3333H20.0417V15.0544C22.1938 11.0676 30.8333 10.7732 30.8333 18.8715V29.2917Z" fill="white"></path>
</svg>
