<svg width="37" height="37" viewBox="0 0 37 37" fill="none" xmlns="http://www.w3.org/2000/svg">
<path d="M36.9737 17.4089C36.3447 6.67918 26.5954 -1.59014 15.3661 0.259828C7.63323 1.5363 1.43585 7.80764 0.233377 15.5404C-0.469609 20.0173 0.45541 24.2538 2.47187 27.7502L0.825384 33.8736C0.455391 35.261 1.73183 36.519 3.1008 36.1305L9.1317 34.4655C11.8696 36.075 15.0701 37 18.4925 37C28.9263 37 37.5841 27.8057 36.9737 17.4089ZM27.5388 25.3822C27.3723 25.7152 27.1689 26.0297 26.9099 26.3257C26.4474 26.8252 25.9479 27.1952 25.3929 27.4172C24.8379 27.6577 24.2274 27.7687 23.5799 27.7687C22.6364 27.7687 21.619 27.5469 20.5645 27.0844C19.4915 26.6219 18.437 26.0112 17.3825 25.2527C16.3096 24.4757 15.3106 23.6063 14.3486 22.6628C13.3866 21.7008 12.5356 20.6833 11.7586 19.6288C11.0001 18.5744 10.3897 17.5199 9.94568 16.4654C9.50169 15.4109 9.27973 14.3935 9.27973 13.4316C9.27973 12.8026 9.39071 12.1921 9.61271 11.6371C9.8347 11.0636 10.1862 10.5456 10.6857 10.0831C11.2777 9.49114 11.9252 9.21365 12.6096 9.21365C12.8686 9.21365 13.1276 9.26913 13.3681 9.38013C13.6086 9.49112 13.8306 9.65762 13.9971 9.89812L16.1431 12.932C16.3096 13.1725 16.4391 13.376 16.5131 13.5795C16.6056 13.783 16.6426 13.968 16.6426 14.153C16.6426 14.375 16.5686 14.597 16.4391 14.8189C16.3096 15.0409 16.1431 15.2629 15.9211 15.4849L15.2181 16.2249C15.1071 16.3359 15.0701 16.4469 15.0701 16.5949C15.0701 16.6689 15.0886 16.7429 15.1071 16.8169C15.1441 16.8909 15.1626 16.9464 15.1811 17.0019C15.3476 17.3164 15.6436 17.7049 16.0506 18.1859C16.4761 18.6669 16.9201 19.1664 17.401 19.6473C17.9005 20.1468 18.3815 20.5908 18.881 21.0163C19.362 21.4233 19.769 21.7008 20.0835 21.8673C20.139 21.8858 20.1945 21.9228 20.25 21.9413C20.324 21.9783 20.398 21.9783 20.4905 21.9783C20.657 21.9783 20.768 21.9228 20.879 21.8118L21.582 21.1088C21.8225 20.8683 22.0445 20.7018 22.248 20.5908C22.4699 20.4613 22.6734 20.3873 22.9139 20.3873C23.0989 20.3873 23.2839 20.4243 23.4874 20.5168C23.6909 20.6093 23.9129 20.7203 24.1349 20.8868L27.2059 23.0698C27.4463 23.2363 27.6128 23.4398 27.7238 23.6618C27.8163 23.9023 27.8718 24.1243 27.8718 24.3833C27.7608 24.6977 27.6868 25.0492 27.5388 25.3822Z" fill="#201735"></path>
</svg>
